<?xml version="1.0" standalone="no"?>
<!DOCTYPE svg PUBLIC "-//W3C//DTD SVG 20010904//EN"
 "http://www.w3.org/TR/2001/REC-SVG-20010904/DTD/svg10.dtd">
<svg version="1.0" xmlns="http://www.w3.org/2000/svg"
 width="400.000000pt" height="400.000000pt" viewBox="0 0 400.000000 400.000000"
 preserveAspectRatio="xMidYMid meet">
<metadata>
Created by potrace 1.11, written by Peter Selinger 2001-2013
</metadata>
<g transform="translate(0.000000,400.000000) scale(0.100000,-0.100000)"
fill="#000000" stroke="none">
<path d="M375 3980 c-92 -24 -158 -62 -226 -130 -66 -66 -115 -155 -135 -249
-21 -99 -20 -1119 2 -1210 41 -177 181 -324 354 -371 25 -7 55 -12 67 -12 39
-1 15 -15 -35 -22 -126 -16 -279 -130 -341 -254 -60 -119 -61 -137 -61 -734 1
-599 2 -617 62 -732 41 -78 137 -173 211 -209 112 -54 144 -57 727 -57 421 0
549 3 601 14 189 40 339 187 383 375 8 33 11 63 7 67 -3 4 0 4 7 0 6 -4 12
-18 12 -32 0 -43 40 -145 80 -204 72 -105 174 -175 302 -205 91 -21 1111 -22
1209 -1 189 41 339 188 383 377 22 93 23 1111 1 1212 -38 179 -180 330 -355
377 -25 7 -55 12 -68 12 -37 1 -15 12 49 25 180 36 330 187 374 375 22 94 21
1124 0 1217 -44 187 -190 332 -377 376 -91 21 -1111 22 -1209 1 -188 -40 -339
-188 -383 -374 -8 -33 -11 -64 -7 -69 3 -4 2 -4 -4 0 -5 5 -15 34 -21 66 -7
33 -25 85 -41 117 -36 76 -140 180 -215 216 -115 56 -134 58 -733 57 -502 0
-556 -2 -620 -19z"/>
</g>
</svg>
